# xmcd
#
# Track frame offsets:
#	150
#	19850
#	51061
#	90829
#	114198
#	149583
#	175149
#	208606
#	251272
#	284917
#
# Disc length: 4361 seconds
#
# Revision: 14
# Processed by: cddbd v1.5.2PL0 Copyright (c) Steve Scherf et al.
# Submitted via: Jack! The Knife 20 Magnifico
#
DISCID=8711070a
DTITLE=Iron Maiden - A Matter Of Life And Death
DYEAR=2006
DGENRE=Metal
TTITLE0=A Different World
TTITLE1=These Colours Don't Run
TTITLE2=Brighter Than A Thousand Suns
TTITLE3=The Pilgrim
TTITLE4=The Longest Day
TTITLE5=Out Of The Shadows
TTITLE6=The Reincarnation Of Benjamin Breeg
TTITLE7=For The Greater Good Of God
TTITLE8=Lord Of Light
TTITLE9=The Legacy
EXTD=Steve Harris and Kevin Shirley
EXTT0=Smith, Harris
EXTT1=Smith, Harris, Dickinson
EXTT2=Smith, Harris, Dickinson
EXTT3=Gers, Harris
EXTT4=Smith, Harris, Dickinson
EXTT5=Dickinson, Harris
EXTT6=Murray, Harris
EXTT7=Steve Harris
EXTT8=Smith, Harris, Dickinson
EXTT9=Gers, Harris
PLAYORDER=
